<?xml version="1.0" encoding="utf-8"?>
<!-- Generator: Adobe Illustrator 23.0.3, SVG Export Plug-In . SVG Version: 6.00 Build 0)  -->
<svg version="1.1" id="Layer_1" xmlns="http://www.w3.org/2000/svg" xmlns:xlink="http://www.w3.org/1999/xlink" x="0px" y="0px"
	 viewBox="0 0 18 18" style="enable-background:new 0 0 18 18;" xml:space="preserve">
<style type="text/css">
	.st0{fill:#FFFFFF;}
	.st1{fill-rule:evenodd;clip-rule:evenodd;fill:#FFFFFF;}
</style>
<title>assign-to</title>
<circle class="st0" cx="6.5" cy="3.5" r="3.5"/>
<path class="st0" d="M13,15.2c0-4-2.9-7.2-6.5-7.2S0,11.2,0,15.2c0,1,0.8,1.8,1.8,1.8c0,0,0.1,0,0.1,0h9.2c1,0.1,1.8-0.7,1.9-1.7
	C13,15.3,13,15.2,13,15.2z"/>
<path class="st1" d="M13,4.7V6h-2c-0.6,0-1,0.4-1,1s0.4,1,1,1h2v1.3c0.1,0.5,0.5,0.8,1,0.7c0.1,0,0.2-0.1,0.3-0.1l3.3-2.3
	c0.3-0.2,0.4-0.7,0.1-1c0-0.1-0.1-0.1-0.1-0.1l-3.4-2.3c-0.4-0.2-0.9-0.1-1.2,0.3C13.1,4.5,13,4.6,13,4.7z"/>
</svg>
